<svg xmlns="http://www.w3.org/2000/svg" xmlns:xlink="http://www.w3.org/1999/xlink" aria-hidden="true" role="img" class="iconify iconify--logos" width="31.88" height="32" preserveAspectRatio="xMidYMid meet" viewBox="0 0 256 257"><defs><linearGradient id="IconifyId1813088fe1fbc01bf2" x1="-3.486%" x2="100.358%" y1="0%" y2="100%"><stop offset="0%" stop-color="#41D1FF"></stop><stop offset="100%" stop-color="#BD34FE"></stop></linearGradient><linearGradient id="IconifyId1813088fe1fbc01bf3" x1="18.156%" x2="81.844%" y1="0%" y2="100%"><stop offset="0%" stop-color="#FFEA79"></stop><stop offset="40.45%" stop-color="#FFDD35"></stop><stop offset="100%" stop-color="#FFA800"></stop></linearGradient></defs><path fill="url(#IconifyId1813088fe1fbc01bf2)" d="M255.153 125.622L134.752 6.586a12.8 12.8 0 0 0-18.002 0L1.147 121.353a12.8 12.8 0 0 0-3.085 13.518l3.6 8.53a12.8 12.8 0 0 0 11.83 7.824H240.23a12.8 12.8 0 0 0 11.79-7.962l3.41-8.318a12.8 12.8 0 0 0-3.277-13.323z"></path><path fill="url(#IconifyId1813088fe1fbc01bf3)" d="M128 257l-45.35-85.834L173.315 80l-48.47 11.235L110 152l41.685-6.3L128 257z"></path></svg>
